# xmcd
#
# Track frame offsets:
#	150
#	30870
#	49526
#	69573
#	91436
#	111916
#	143165
#	164370
#	190056
#	214615
#	232531
#	243822
#
# Disc length: 3404 seconds
#
# Revision: 0
# Processed by: cddbd v1.5.1PL2 Copyright (c) Steve Scherf et al.
# Submitted via: audiograbber 1.83.01
#
DISCID=8f0d4a0c
DTITLE=Bryan - 02
DYEAR=2006
DGENRE=House
TTITLE0=Hello Brian,
TTITLE1=How you doing?
TTITLE2=Are you freaked out yet?
TTITLE3=How about now?
TTITLE4=We dig your shit
TTITLE5=Looks like we can swear
TTITLE6=Don't Run With Scissors...
TTITLE7=Pause...
TTITLE8=Tilt
TTITLE9=We have three to go
TTITLE10=hehehe
TTITLE11=The end... Maybe...
EXTD=Remix Compilation 2
EXTT0=
EXTT1=
EXTT2=
EXTT3=
EXTT4=
EXTT5=
EXTT6=
EXTT7=
EXTT8=
EXTT9=
EXTT10=
EXTT11=
PLAYORDER=
